<?xml version="1.0" standalone="no"?><!DOCTYPE svg PUBLIC "-//W3C//DTD SVG 1.1//EN" "http://www.w3.org/Graphics/SVG/1.1/DTD/svg11.dtd"><svg t="1615043469785" class="icon" viewBox="0 0 1024 1024" version="1.1" xmlns="http://www.w3.org/2000/svg" p-id="6032" xmlns:xlink="http://www.w3.org/1999/xlink" width="48" height="48"><defs><style type="text/css"></style></defs><path d="M933.875 568.25h-365.625v365.625c0 15.525-12.6 28.125-28.125 28.125h-56.25c-15.525 0-28.125-12.6-28.125-28.125v-365.625h-365.625c-15.525 0-28.125-12.6-28.125-28.125v-56.25c0-15.525 12.6-28.125 28.125-28.125h365.625v-365.625c0-15.525 12.6-28.125 28.125-28.125h56.25c15.525 0 28.125 12.6 28.125 28.125v365.625h365.625c15.525 0 28.125 12.6 28.125 28.125v56.25c0 15.525-12.6 28.125-28.125 28.125z" p-id="6033" fill="#57555F"></path></svg>