<?xml version="1.0" standalone="no"?><!DOCTYPE svg PUBLIC "-//W3C//DTD SVG 1.1//EN" "http://www.w3.org/Graphics/SVG/1.1/DTD/svg11.dtd"><svg t="1615041506513" class="icon" viewBox="0 0 1024 1024" version="1.1" xmlns="http://www.w3.org/2000/svg" p-id="6544" xmlns:xlink="http://www.w3.org/1999/xlink" width="48" height="48"><defs><style type="text/css"></style></defs><path d="M915.065 863.208c16.516 0 29.904 13.385 29.904 29.896 0 16.275-13.009 29.513-29.198 29.888l-0.706 0.008H80.904C64.388 923 51 909.615 51 893.104c0-16.275 13.009-29.513 29.198-29.888l0.706-0.008h834.161zM731.711 322.074l203.042 191.69c12.666 11.957 12.468 32.163-0.43 43.87L731.281 741.935c-19.214 17.44-50.005 3.81-50.005-22.134V343.81c0-26.224 31.364-39.741 50.435-21.737zM598.466 626.338c16.516 0 29.904 13.385 29.904 29.896 0 16.276-13.009 29.513-29.198 29.888l-0.706 0.009H80.904C64.388 686.13 51 672.746 51 656.234c0-16.275 13.009-29.513 29.198-29.888l0.706-0.008h517.562z m0-239.169c16.516 0 29.904 13.385 29.904 29.896 0 16.276-13.009 29.513-29.198 29.888l-0.706 0.008H80.904C64.388 446.961 51 433.576 51 417.065c0-16.275 13.009-29.513 29.198-29.888l0.706-0.008h517.562zM915.096 148C931.612 148 945 161.385 945 177.896c0 16.275-13.009 29.513-29.198 29.888l-0.706 0.008H80.935c-16.516 0-29.904-13.385-29.904-29.896 0-16.275 13.009-29.513 29.198-29.888l0.706-0.008h834.161z" fill="#333333" p-id="6545"></path></svg>