<?xml version="1.0" standalone="no"?><!DOCTYPE svg PUBLIC "-//W3C//DTD SVG 1.1//EN" "http://www.w3.org/Graphics/SVG/1.1/DTD/svg11.dtd"><svg t="1615042808310" class="icon" viewBox="0 0 1024 1024" version="1.1" xmlns="http://www.w3.org/2000/svg" p-id="5109" xmlns:xlink="http://www.w3.org/1999/xlink" width="48" height="48"><defs><style type="text/css"></style></defs><path d="M920.4 883.6L734.9 698.1c55.4-63.9 89.1-147 89.1-238.1 0-201-163-364-364-364S96 259 96 460s163 364 364 364c91.2 0 174.3-33.7 238.1-89.1l185.5 185.5c4.7 4.7 11.2 7.6 18.4 7.6 14.4 0 26-11.6 26-26 0-7.2-2.9-13.7-7.6-18.4zM460 772c-172 0-312-140-312-312s140-312 312-312 312 140 312 312-140 312-312 312z" p-id="5110" fill="#57555F"></path></svg>