<?xml version="1.0" standalone="no"?><!DOCTYPE svg PUBLIC "-//W3C//DTD SVG 1.1//EN" "http://www.w3.org/Graphics/SVG/1.1/DTD/svg11.dtd"><svg t="1615041550996" class="icon" viewBox="0 0 1024 1024" version="1.1" xmlns="http://www.w3.org/2000/svg" p-id="3324" xmlns:xlink="http://www.w3.org/1999/xlink" width="48" height="48"><defs><style type="text/css"></style></defs><path d="M915.28 863.208c16.52 0 29.912 13.385 29.912 29.896 0 16.275-13.012 29.513-29.205 29.888l-0.706 0.008H80.91C64.391 923 51 909.615 51 893.104c0-16.275 13.012-29.513 29.205-29.888l0.706-0.008h834.37zM263.469 322.074c19.076-18.004 50.447-4.487 50.447 21.737V719.8c0 25.945-30.799 39.574-50.017 22.134l-203.093-184.3c-12.9-11.708-13.099-31.914-0.43-43.871z m653.858 303.114c15.836 0 28.674 13.385 28.674 29.897 0 16.275-12.474 29.513-27.997 29.888l-0.677 0.008H387.957c-15.836 0-28.674-13.385-28.674-29.896 0-16.276 12.474-29.514 27.997-29.888l0.677-0.009h529.369z m0-239.169c15.836 0 28.674 13.385 28.674 29.896 0 16.276-12.474 29.514-27.997 29.888l-0.677 0.009H387.957c-15.836 0-28.674-13.385-28.674-29.897 0-16.275 12.474-29.513 27.997-29.888l0.677-0.008h529.369zM915.28 148c16.519 0 29.91 13.385 29.91 29.896 0 16.275-13.011 29.513-29.204 29.888l-0.706 0.008H80.91c-16.52 0-29.911-13.385-29.911-29.896 0-16.275 13.012-29.513 29.205-29.888l0.706-0.008h834.37z" fill="#333333" p-id="3325"></path></svg>